<svg width="133" height="34" viewBox="0 0 133 34" fill="none" xmlns="http://www.w3.org/2000/svg">
<path d="M36.4119 23.9346H20.915V0.21875H36.4119V4.34866H25.4967V9.91158H34.7606V14.0415H25.4967V19.8033H36.4119V23.9332V23.9346Z" fill="#004E97"/>
<path d="M56.9791 23.9346H51.6715L47.0898 14.4759H43.7925V23.9346H39.2095V0.21875H48.4063C50.7354 0.21875 52.6037 0.92917 54.0113 2.35001C55.3519 3.70454 56.0215 5.41361 56.0215 7.47991C56.0215 9.05637 55.593 10.4109 54.7358 11.5435C53.9671 12.5435 52.9666 13.2648 51.7358 13.7086L56.9778 23.9346H56.9791ZM51.4412 7.46368C51.4412 6.53539 51.1331 5.78573 50.5184 5.21063C49.9023 4.63688 49.1014 4.34866 48.1117 4.34866H43.7938V10.5773H48.1117C49.1014 10.5773 49.9023 10.2905 50.5184 9.71537C51.1331 9.14162 51.4412 8.3906 51.4412 7.46232V7.46368Z" fill="#004E97"/>
<path d="M74.9688 14.0497C74.9688 17.3 74.2215 19.8481 72.7269 21.4286C71.0126 23.2324 68.8041 24.1336 66.1014 24.1336C63.5956 24.1336 61.4862 23.2675 59.7719 21.5355C58.7166 20.4692 58.0349 19.1038 57.7282 17.4394C57.5514 16.4624 57.4644 14.6748 57.4644 12.0767C57.4644 9.47864 57.5527 7.69108 57.7282 6.71409C58.0362 5.04832 58.7193 3.68297 59.776 2.61801C61.4929 0.88459 63.6077 0.0185547 66.1175 0.0185547C68.6273 0.0185547 70.7527 0.784455 72.3599 2.31625C73.7474 3.67079 74.6166 5.43669 74.9688 7.6126H70.3416C69.7911 5.30408 68.3809 4.14846 66.1108 4.14846C64.8987 4.14846 63.9184 4.57065 63.1697 5.41368C62.5965 6.07945 62.2429 7.14575 62.1117 8.61125C62.0675 9.01044 62.0461 10.1661 62.0461 12.0754C62.0461 13.9847 62.0675 15.139 62.1117 15.5395C62.2429 17.028 62.5952 18.1038 63.167 18.7696C63.8916 19.5909 64.8693 20.0023 66.1014 20.0023C67.4862 20.0023 68.5737 19.5585 69.3652 18.6694C70.0684 17.8927 70.4206 16.7046 70.4206 15.3717V14.4719H66.1027V10.5747H74.9702V14.047L74.9688 14.0497Z" fill="#004E97"/>
<path d="M94.7608 23.9346H89.9809L88.5961 19.737H80.2563L78.838 23.9346H74.0581L82.5961 0.21875H86.1894L94.7608 23.9346ZM87.376 15.8412L84.5072 7.21469L81.5407 15.8412H87.376Z" fill="#004E97"/>
<path d="M17.951 6.88046C17.6657 5.12673 16.9398 3.66124 15.776 2.48397C14.28 0.973824 12.2148 0.21875 9.57779 0.21875H1.10547V6.89669H5.68851V4.34866H9.14922C10.6439 4.34866 11.7863 4.83715 12.5778 5.81415C12.9956 6.32565 13.2702 7.03607 13.4015 7.94541C13.5113 8.72349 13.5662 10.0658 13.5662 11.9752C13.5662 13.8845 13.5113 15.2837 13.4015 16.1051C13.2689 17.0821 12.9943 17.8263 12.5778 18.3365C11.7863 19.3135 10.6439 19.802 9.14922 19.802H5.68851V17.2539H1.10547V23.9319H9.57779C12.2148 23.9319 14.28 23.1768 15.7747 21.6667C16.9385 20.4907 17.6644 18.9914 17.9497 17.17C18.0823 16.3487 18.1479 14.6166 18.1479 11.9738C18.1479 9.33106 18.0823 7.67748 17.9497 6.87775L17.951 6.88046Z" fill="#004E97"/>
<path d="M5.6885 9.76172H1.10547V14.3909H5.6885V9.76172Z" fill="#4A4A4A"/>
<path d="M98.0032 11.9003C99.0612 12.9369 100.451 13.5715 102.569 13.8719L105.38 14.3063C105.61 14.3388 105.811 14.3726 105.991 14.4091H112.392C112.106 13.4403 111.624 12.6202 110.903 11.968C109.877 10.9315 108.554 10.397 106.405 10.0966L104.248 9.76367H96.688C96.9679 10.6053 97.4058 11.3158 98.0032 11.9017V11.9003Z" fill="#004E97"/>
<path d="M100.785 6.89716C100.855 5.32882 101.985 4.04465 104.388 4.04465C105.942 4.04465 107.761 4.24493 109.217 5.682L112.129 2.77402C110.11 0.768606 107.795 0 104.52 0C99.5246 0 96.4764 2.82544 96.3237 6.8958H100.786L100.785 6.89716Z" fill="#4A4A4A"/>
<path d="M108.219 17.2725C108.125 19.0573 106.707 20.0546 104.023 20.0546C101.873 20.0546 99.8552 19.5539 98.3659 18.0492L95.3887 21.0573C97.6708 23.4308 100.416 24.1994 103.99 24.1994C108.844 24.1994 112.558 21.7014 112.715 17.2725H108.219Z" fill="#4A4A4A"/>
<path d="M131.512 3.67749C129.824 1.27154 127.608 0.201172 124.4 0.201172H115.898V6.89671H120.496V4.34596H124.002C125.524 4.34596 126.682 4.84664 127.443 5.81687C128.303 6.8534 128.402 8.35679 128.402 12.0997C128.402 15.8426 128.303 17.3473 127.443 18.3839C126.682 19.3527 125.524 19.8548 124.002 19.8548H120.496V17.2729H115.898V23.9995H124.4C127.609 23.9995 129.826 22.9305 131.512 20.5232C132.934 18.4515 133 16.078 133 12.101C133 8.12404 132.934 5.75056 131.512 3.67884V3.67749Z" fill="#4A4A4A"/>
<path d="M120.498 9.76172H115.916V14.3909H120.498V9.76172Z" fill="#004E97"/>
<path d="M1.00121 31.2435H1.61862C1.69898 32.0338 2.16773 32.4302 3.02487 32.4302C3.47086 32.4302 3.8097 32.3355 4.04005 32.1447C4.27175 31.9539 4.38693 31.6765 4.38693 31.3139C4.38693 30.9851 4.29586 30.7361 4.11237 30.5696C3.92889 30.4018 3.653 30.2868 3.28068 30.2232L2.61237 30.1109C2.13291 30.0297 1.76327 29.8646 1.50612 29.6129C1.24898 29.3612 1.12041 29.0081 1.12041 28.552C1.12041 28.027 1.29452 27.617 1.64273 27.322C1.99095 27.027 2.45166 26.8809 3.0222 26.8809C3.54854 26.8809 3.97845 27.0175 4.31193 27.2922C4.64541 27.5669 4.84496 27.9837 4.90791 28.5439H4.2905C4.2222 27.7997 3.7963 27.4262 3.01282 27.4262C2.60702 27.4262 2.29095 27.5223 2.06595 27.7158C1.83961 27.9093 1.72711 28.1731 1.72711 28.5087C1.72711 28.8037 1.81416 29.0324 1.98827 29.1975C2.16237 29.3626 2.42621 29.4763 2.78112 29.5399L3.46684 29.6616C3.96371 29.7482 4.34407 29.9215 4.60657 30.1813C4.86907 30.4411 5.00032 30.8078 5.00032 31.2814C5.00032 31.824 4.82086 32.2435 4.46059 32.5412C4.10032 32.8389 3.60612 32.9878 2.978 32.9878C2.38336 32.9878 1.91862 32.8403 1.58112 32.5466C1.24362 32.2516 1.04943 31.8186 0.998535 31.2476L1.00121 31.2435Z" fill="#4A4A4A"/>
<path d="M7.84118 30.7161V29.1654C7.84118 28.3751 8.02734 27.796 8.39833 27.4293C8.76931 27.0626 9.2702 26.8799 9.89833 26.8799C10.5265 26.8799 11.0166 27.0626 11.3849 27.4293C11.7532 27.796 11.9381 28.3751 11.9381 29.1654V30.7161C11.9381 31.5064 11.7519 32.0856 11.3809 32.4523C11.0099 32.819 10.5131 33.0017 9.88895 33.0017C9.26484 33.0017 8.76127 32.819 8.39297 32.4523C8.02466 32.0856 7.83984 31.5064 7.83984 30.7161H7.84118ZM11.3126 29.1925C11.3126 28.0314 10.8412 27.4523 9.89833 27.4523C9.42422 27.4523 9.06663 27.5889 8.8269 27.8636C8.58716 28.1383 8.46663 28.5808 8.46663 29.1925V30.7513C8.46663 31.3346 8.5885 31.7581 8.83091 32.0247C9.07333 32.2899 9.42958 32.4225 9.89833 32.4225C10.8412 32.4225 11.3126 31.865 11.3126 30.7513V29.1925Z" fill="#4A4A4A"/>
<path d="M15.6919 29.6255H18.2285V30.1965H15.6919V32.9327H15.0664V26.957H18.657V27.5281H15.6919V29.6241V29.6255Z" fill="#4A4A4A"/>
<path d="M23.2521 27.529V32.9323H22.6346V27.529H20.9458V26.958H24.9396V27.529H23.2507H23.2521Z" fill="#4A4A4A"/>
<path d="M32.3377 32.9327H31.7806L30.4694 27.7459L29.1917 32.9327H28.6346L27.1172 26.957H27.7252L28.9252 31.911L30.0824 26.957H30.8792L32.0792 31.911L33.2364 26.957H33.819L32.3364 32.9327H32.3377Z" fill="#4A4A4A"/>
<path d="M36.8124 31.4956L36.3155 32.9327H35.6553L37.8062 26.957H38.3285L40.4794 32.9327H39.8191L39.3222 31.4956H36.8111H36.8124ZM38.0633 27.8407L36.9919 30.9584H39.1428L38.0633 27.8407Z" fill="#4A4A4A"/>
<path d="M43.7299 30.3089V32.9327H43.1045V26.957H45.2982C45.8527 26.957 46.288 27.1032 46.6054 27.3941C46.9228 27.685 47.0808 28.1005 47.0808 28.6363C47.0808 29.0639 46.9697 29.4158 46.746 29.6932C46.5237 29.9706 46.2116 30.1546 45.8112 30.248L47.2081 32.9327H46.4875L45.1509 30.3089H43.7286H43.7299ZM45.2473 29.7635C45.6304 29.7635 45.9277 29.6675 46.1393 29.4739C46.3509 29.2804 46.4567 29.0044 46.4567 28.6472C46.4567 28.2899 46.3523 27.999 46.1433 27.8109C45.9344 27.6228 45.6357 27.5294 45.2473 27.5294H43.7299V29.7635H45.2473Z" fill="#4A4A4A"/>
<path d="M50.7412 29.6079H53.2778V30.179H50.7412V32.3616H53.7063V32.9327H50.1157V26.957H53.7063V27.5281H50.7412V29.6066V29.6079Z" fill="#4A4A4A"/>
<path d="M62.4408 26.9574C63.0689 26.9574 63.5685 27.1401 63.9368 27.5068C64.3051 27.8735 64.4899 28.4527 64.4899 29.2429V30.6462C64.4899 31.4364 64.3051 32.0156 63.9368 32.3823C63.5685 32.749 63.0702 32.9317 62.4408 32.9317H60.4185V26.9561H62.4408V26.9574ZM63.8551 30.6814V29.27C63.8551 28.6638 63.7332 28.2226 63.4908 27.9452C63.2484 27.6678 62.9002 27.5298 62.4488 27.5298H61.0519V32.362H62.4488C63.3863 32.362 63.8551 31.8018 63.8551 30.6814Z" fill="#4A4A4A"/>
<path d="M68.2426 29.6079H70.7792V30.179H68.2426V32.3616H71.2078V32.9327H67.6172V26.957H71.2078V27.5281H68.2426V29.6066V29.6079Z" fill="#4A4A4A"/>
<path d="M74.2095 26.957L75.7443 31.911L77.2697 26.957H77.9206L75.9921 32.9327H75.4778L73.5586 26.957H74.2095Z" fill="#4A4A4A"/>
<path d="M81.1694 29.6079H83.706V30.179H81.1694V32.3616H84.1346V32.9327H80.5439V26.957H84.1346V27.5281H81.1694V29.6066V29.6079Z" fill="#4A4A4A"/>
<path d="M87.7347 26.9574V32.3607H90.6825V32.9317H87.1079V26.9561H87.7334L87.7347 26.9574Z" fill="#4A4A4A"/>
<path d="M93.0663 30.7161V29.1654C93.0663 28.3751 93.2524 27.796 93.6234 27.4293C93.9944 27.0626 94.4953 26.8799 95.1234 26.8799C95.7516 26.8799 96.2417 27.0626 96.61 27.4293C96.9783 27.796 97.1632 28.3751 97.1632 29.1654V30.7161C97.1632 31.5064 96.977 32.0856 96.606 32.4523C96.235 32.819 95.7382 33.0017 95.1141 33.0017C94.4899 33.0017 93.9864 32.819 93.6181 32.4523C93.2498 32.0856 93.0649 31.5064 93.0649 30.7161H93.0663ZM96.5377 29.1925C96.5377 28.0314 96.0663 27.4523 95.1234 27.4523C94.6493 27.4523 94.2917 27.5889 94.052 27.8636C93.8123 28.1383 93.6917 28.5808 93.6917 29.1925V30.7513C93.6917 31.3346 93.8136 31.7581 94.056 32.0247C94.2984 32.2899 94.6547 32.4225 95.1234 32.4225C96.0663 32.4225 96.5377 31.865 96.5377 30.7513V29.1925Z" fill="#4A4A4A"/>
<path d="M104.277 28.7419C104.277 29.2791 104.11 29.6999 103.776 30.0057C103.442 30.3116 102.989 30.4645 102.418 30.4645H100.918V32.9327H100.293V26.957H102.418C102.996 26.957 103.45 27.1113 103.782 27.4198C104.113 27.7283 104.279 28.1695 104.279 28.7405L104.277 28.7419ZM103.652 28.7419C103.652 28.3319 103.541 28.0274 103.317 27.8285C103.095 27.6296 102.777 27.5294 102.366 27.5294H100.917V29.8934H102.366C102.777 29.8934 103.095 29.7987 103.317 29.6079C103.539 29.4171 103.652 29.1289 103.652 28.7419Z" fill="#4A4A4A"/>
<path d="M112.197 32.9327H111.572V28.2561L109.9 31.7378H109.421L107.741 28.2561V32.9327H107.116V26.957H107.741L109.66 30.9841L111.572 26.957H112.197V32.9327Z" fill="#4A4A4A"/>
<path d="M116.071 29.6079H118.608V30.179H116.071V32.3616H119.036V32.9327H115.446V26.957H119.036V27.5281H116.071V29.6066V29.6079Z" fill="#4A4A4A"/>
<path d="M126.322 32.9327H125.697L122.637 28.1181V32.9327H122.011V26.957H122.637L125.697 31.7541V26.957H126.322V32.9327Z" fill="#4A4A4A"/>
<path d="M131.26 27.529V32.9323H130.643V27.529H128.954V26.958H132.948V27.529H131.259H131.26Z" fill="#4A4A4A"/>
</svg>
