<svg width="61" height="34" viewBox="0 0 61 34" fill="none" xmlns="http://www.w3.org/2000/svg">
<path d="M12.6766 1.56342L12.4356 1.43075L12.1945 1.56342L3.24911 6.48651L2.45317 6.92455L3.24911 7.3626L20.5172 16.8661L2.75892 26.6394L1.96299 27.0774L2.75892 27.5154L11.7043 32.4385L11.9454 32.5712L12.1864 32.4385L30.4996 22.3599L48.8136 32.439L49.0546 32.5717L49.2957 32.439L58.2411 27.5159L59.037 27.0779L58.2411 26.6398L40.4819 16.8661L57.7509 7.36211L58.5468 6.92406L57.7509 6.48602L48.8055 1.56293L48.5644 1.43026L48.3234 1.56293L30.4996 11.3723L12.6766 1.56342Z" stroke="#89919A"/>
</svg>
