<svg width="57" height="32" viewBox="0 0 57 32" fill="none" xmlns="http://www.w3.org/2000/svg">
<path fill-rule="evenodd" clip-rule="evenodd" d="M42.0201 21.876C38.893 21.876 36.1338 23.376 35.5819 25.376H26.7525C26.0167 23.376 23.4415 21.876 20.1304 21.876C19.9465 21.876 19.7625 21.876 19.5786 21.876L18.6589 19.751H48.0903L56 6.62598H12.7726L10.5652 1.62598V1.50098H10.1973L1 1.00098L1.36789 3.12598L7.62207 3.50098L16.2676 22.751C14.612 23.626 13.5084 24.876 13.5084 26.376C13.5084 28.876 16.4515 31.001 20.3144 31.001C23.4415 31.001 26.2007 29.501 26.9365 27.501H35.7659C36.5017 29.501 39.0769 31.001 42.204 31.001C45.8829 31.001 49.01 29.001 49.01 26.376C48.8261 23.876 45.699 21.876 42.0201 21.876Z" stroke="#89919A"/>
</svg>
